<svg width="24" height="24" viewBox="0 0 24 24" fill="none" xmlns="http://www.w3.org/2000/svg">
<path d="M21.5625 11.2523H15C14.4033 11.2523 13.831 11.0153 13.409 10.5933C12.9871 10.1714 12.75 9.59906 12.75 9.00232V2.43982C12.75 2.39009 12.7302 2.3424 12.6951 2.30724C12.6599 2.27207 12.6122 2.25232 12.5625 2.25232H10.0664C9.97887 2.0902 9.87689 1.93629 9.76172 1.79248C9.22125 1.12169 8.41828 0.752319 7.5 0.752319C5.73375 0.752319 4.5 2.14029 4.5 4.12732V10.8773C4.5 12.0492 5.45344 12.7523 6.375 12.7523C6.62198 12.755 6.86701 12.7084 7.09571 12.6151C7.32442 12.5218 7.53219 12.3838 7.70684 12.2092C7.88149 12.0345 8.0195 11.8267 8.11277 11.598C8.20604 11.3693 8.2527 11.1243 8.25 10.8773V3.75232C8.25 3.55341 8.17098 3.36264 8.03033 3.22199C7.88968 3.08134 7.69891 3.00232 7.5 3.00232C7.30109 3.00232 7.11032 3.08134 6.96967 3.22199C6.82902 3.36264 6.75 3.55341 6.75 3.75232V10.8773C6.75163 10.927 6.74305 10.9765 6.72478 11.0227C6.70651 11.069 6.67895 11.111 6.64379 11.1461C6.60864 11.1813 6.56665 11.2088 6.52041 11.2271C6.47418 11.2454 6.42469 11.254 6.375 11.2523C6.27047 11.2523 6 11.1848 6 10.8773V4.12732C6 3.22076 6.39422 2.25232 7.5 2.25232C8.89172 2.25232 9 3.6656 9 4.09826V10.6022C9 11.4201 8.74359 12.1598 8.27766 12.6862C7.80469 13.2211 7.14703 13.5023 6.375 13.5023C5.60297 13.5023 4.94531 13.2211 4.47234 12.6862C4.00641 12.1598 3.75 11.4201 3.75 10.6022V6.75232C3.75 6.55341 3.67098 6.36264 3.53033 6.22199C3.38968 6.08134 3.19891 6.00232 3 6.00232C2.80109 6.00232 2.61032 6.08134 2.46967 6.22199C2.32902 6.36264 2.25 6.55341 2.25 6.75232V10.6022C2.25 13.0167 3.80578 14.8036 6 14.9864V20.2523C6 21.048 6.31607 21.811 6.87868 22.3736C7.44129 22.9363 8.20435 23.2523 9 23.2523H18.75C19.5457 23.2523 20.3087 22.9363 20.8713 22.3736C21.4339 21.811 21.75 21.048 21.75 20.2523V11.4398C21.75 11.3901 21.7302 11.3424 21.6951 11.3072C21.6599 11.2721 21.6122 11.2523 21.5625 11.2523Z" fill="#757D95"/>
<path d="M14.9998 9.74931H21.0846C21.1031 9.74923 21.1211 9.74369 21.1365 9.73338C21.1518 9.72308 21.1638 9.70846 21.1708 9.69138C21.1779 9.6743 21.1798 9.65551 21.1762 9.63738C21.1726 9.61924 21.1637 9.60257 21.1507 9.58946L14.4096 2.84837C14.3965 2.83534 14.3798 2.82647 14.3617 2.82289C14.3436 2.8193 14.3248 2.82116 14.3077 2.82822C14.2906 2.83528 14.276 2.84724 14.2657 2.86258C14.2554 2.87793 14.2498 2.89598 14.2498 2.91446V8.99931C14.2498 9.19822 14.3288 9.38899 14.4694 9.52964C14.6101 9.67029 14.8008 9.74931 14.9998 9.74931Z" fill="#757D95"/>
</svg>
