<svg width="24" height="24" viewBox="0 0 24 24" fill="none" xmlns="http://www.w3.org/2000/svg">
<path d="M10.1297 8.99735V15.7403C10.1375 16.2334 10.3388 16.7036 10.6903 17.0496C11.0417 17.3955 11.5151 17.5894 12.0082 17.5894C12.5013 17.5894 12.9747 17.3955 13.3261 17.0496C13.6776 16.7036 13.8789 16.2334 13.8867 15.7403L13.8928 6.90203C13.8979 6.4806 13.8193 6.06233 13.6616 5.67149C13.5039 5.28065 13.2701 4.92501 12.9739 4.62519C12.6777 4.32536 12.3249 4.08731 11.936 3.92484C11.5471 3.76237 11.1298 3.67871 10.7084 3.67871C10.2869 3.67871 9.86961 3.76237 9.48071 3.92484C9.09182 4.08731 8.73904 4.32536 8.44283 4.62519C8.14661 4.92501 7.91286 5.28065 7.75512 5.67149C7.59738 6.06233 7.51879 6.4806 7.52391 6.90203V15.7998C7.51532 16.3932 7.62477 16.9823 7.84588 17.5329C8.067 18.0836 8.39537 18.5848 8.81191 19.0074C9.22845 19.43 9.72484 19.7656 10.2722 19.9946C10.8196 20.2237 11.4071 20.3417 12.0005 20.3417C12.5939 20.3417 13.1813 20.2237 13.7287 19.9946C14.2761 19.7656 14.7725 19.43 15.189 19.0074C15.6056 18.5848 15.9339 18.0836 16.1551 17.5329C16.3762 16.9823 16.4856 16.3932 16.477 15.7998V7.48516" stroke="#757D95" stroke-width="1.5" stroke-miterlimit="10" stroke-linecap="round"/>
</svg>
