<svg width="20" height="20" viewBox="0 0 20 20" fill="none" xmlns="http://www.w3.org/2000/svg">
<path d="M4.375 4.37207L5.15625 16.8721C5.19336 17.5943 5.71875 18.1221 6.40625 18.1221H13.5937C14.284 18.1221 14.7996 17.5943 14.8437 16.8721L15.625 4.37207" stroke="#393939" stroke-width="1.5" stroke-linecap="round" stroke-linejoin="round"/>
<path d="M3.125 4.37207H16.875H3.125Z" fill="#757D95"/>
<path d="M3.125 4.37207H16.875" stroke="#393939" stroke-width="1.5" stroke-miterlimit="10" stroke-linecap="round"/>
<path d="M12.8125 6.87403L12.5 15.624M7.5 4.37403V2.81153C7.49964 2.68831 7.52364 2.56624 7.57063 2.45234C7.61761 2.33843 7.68666 2.23494 7.77378 2.14781C7.86091 2.06068 7.9644 1.99164 8.07831 1.94466C8.19221 1.89767 8.31428 1.87367 8.4375 1.87403H11.5625C11.6857 1.87367 11.8078 1.89767 11.9217 1.94466C12.0356 1.99164 12.1391 2.06068 12.2262 2.14781C12.3133 2.23494 12.3824 2.33843 12.4294 2.45234C12.4764 2.56624 12.5004 2.68831 12.5 2.81153V4.37403H7.5ZM10 6.87403V15.624V6.87403ZM7.1875 6.87403L7.5 15.624L7.1875 6.87403Z" stroke="#757D95" stroke-width="1.5" stroke-linecap="round" stroke-linejoin="round"/>
</svg>
