<svg width="24" height="24" viewBox="0 0 24 24" fill="none" xmlns="http://www.w3.org/2000/svg">
<path d="M17.25 2.25244H16.7152C16.6398 2.25237 16.5663 2.22961 16.5041 2.18714C16.4419 2.14466 16.3939 2.08444 16.3664 2.01432C16.2223 1.643 15.9694 1.32386 15.6409 1.0987C15.3123 0.873533 14.9235 0.752846 14.5252 0.752441H9.47485C9.07655 0.752846 8.68766 0.873533 8.35912 1.0987C8.03057 1.32386 7.77769 1.643 7.63359 2.01432C7.6061 2.08444 7.55813 2.14466 7.49592 2.18714C7.43372 2.22961 7.36017 2.25237 7.28484 2.25244H6.75C5.95435 2.25244 5.19129 2.56851 4.62868 3.13112C4.06607 3.69373 3.75 4.45679 3.75 5.25244V20.2524C3.75 21.0481 4.06607 21.8112 4.62868 22.3738C5.19129 22.9364 5.95435 23.2524 6.75 23.2524H17.25C18.0457 23.2524 18.8087 22.9364 19.3713 22.3738C19.9339 21.8112 20.25 21.0481 20.25 20.2524V5.25244C20.25 4.45679 19.9339 3.69373 19.3713 3.13112C18.8087 2.56851 18.0457 2.25244 17.25 2.25244ZM14.9939 5.25244H9.0061C8.80718 5.25244 8.61642 5.17342 8.47576 5.03277C8.33511 4.89212 8.25609 4.70135 8.25609 4.50244C8.25609 4.30353 8.33511 4.11276 8.47576 3.97211C8.61642 3.83146 8.80718 3.75244 9.0061 3.75244H14.9939C15.1928 3.75244 15.3836 3.83146 15.5242 3.97211C15.6649 4.11276 15.7439 4.30353 15.7439 4.50244C15.7439 4.70135 15.6649 4.89212 15.5242 5.03277C15.3836 5.17342 15.1928 5.25244 14.9939 5.25244Z" fill="#97A1C0"/>
</svg>
