<svg width="404" height="334" viewBox="0 0 404 334" fill="none" xmlns="http://www.w3.org/2000/svg">
<path d="M392.613 0.847467H340.008C334.124 0.847467 329.351 6.41511 329.351 13.319C329.351 20.2145 334.124 25.8073 340.008 25.8073L352.826 25.867L352.834 25.8582L392.613 25.867C398.504 25.867 403.285 20.2739 403.285 13.37C403.285 6.45752 398.504 0.847467 392.613 0.847467Z" fill="#4DB9B2"/>
<path d="M45.7655 84.1716C39.5596 84.1716 34.5183 78.5785 34.5183 71.6746C34.5183 64.7706 39.5596 59.1775 45.7655 59.1775H144.47C149.94 59.1775 153.005 56.241 154.093 52.0442C154.797 49.3371 158.743 42.3311 166.719 42.3311H321.705C321.705 42.3311 322.303 42.254 322.594 42.569C322.854 42.884 322.916 43.3437 322.916 43.3437V67.1713C322.916 67.1713 322.778 67.861 322.448 68.0739C321.927 68.4059 321.422 68.3206 321.422 68.3206L279.329 68.2437C274.234 68.2437 269.813 72.5942 269.813 78.2468V236.637C269.813 236.637 269.813 244.758 263.829 249.194C263.829 249.194 219.561 280.887 216.91 282.888C214.719 284.565 209.647 286.863 205.149 283.228C201.954 280.649 201.571 274.587 201.571 274.587V80.7579C201.571 71.2405 196.446 68.278 190.225 68.278L169.546 68.2697C163.271 68.2101 161.019 70.8914 159.946 75.0882C159.241 77.7953 155.985 84.1207 147.596 84.1207H141.482C137.398 84.1207 134.119 87.815 134.119 92.3353V248.904C134.119 248.904 134.341 261.937 127.913 272.408C122.741 280.836 110.874 288.472 110.874 288.472L61.5713 324.89C61.5713 324.89 41.5593 340.281 19.0649 331.045C2.11744 324.081 -0.640713 311.542 1.21339 300.245C3.06749 288.974 15.0502 282.351 22.4666 282.811C31.6222 283.373 38.9927 286.88 43.3904 298.883C47.045 308.835 49.8797 312.223 54.4844 312.572C59.1043 312.921 63.4024 306.068 63.4024 293.409C63.4024 280.751 63.4024 92.2418 63.4024 92.2418C63.4024 87.8151 60.1769 84.2142 56.1852 84.2142L45.7655 84.1716Z" fill="#4DB9B2"/>
<path d="M392.613 0.847467H340.008C334.124 0.847467 329.351 6.41511 329.351 13.319C329.351 20.2145 334.124 25.8073 340.008 25.8073L352.826 25.867L352.834 25.8582L392.613 25.867C398.504 25.867 403.285 20.2739 403.285 13.37C403.285 6.45752 398.504 0.847467 392.613 0.847467Z" fill="#4DB9B2"/>
<path d="M45.7655 84.1716C39.5596 84.1716 34.5183 78.5785 34.5183 71.6746C34.5183 64.7706 39.5596 59.1775 45.7655 59.1775H144.47C149.94 59.1775 153.005 56.241 154.093 52.0442C154.797 49.3371 158.743 42.3311 166.719 42.3311H321.705C321.705 42.3311 322.303 42.254 322.594 42.569C322.854 42.884 322.916 43.3437 322.916 43.3437V67.1713C322.916 67.1713 322.778 67.861 322.448 68.0739C321.927 68.4059 321.422 68.3206 321.422 68.3206L279.329 68.2437C274.234 68.2437 269.813 72.5942 269.813 78.2468V236.637C269.813 236.637 269.813 244.758 263.829 249.194C263.829 249.194 219.561 280.887 216.91 282.888C214.719 284.565 209.647 286.863 205.149 283.228C201.954 280.649 201.571 274.587 201.571 274.587V80.7579C201.571 71.2405 196.446 68.278 190.225 68.278L169.546 68.2697C163.271 68.2101 161.019 70.8914 159.946 75.0882C159.241 77.7953 155.985 84.1207 147.596 84.1207H141.482C137.398 84.1207 134.119 87.815 134.119 92.3353V248.904C134.119 248.904 134.341 261.937 127.913 272.408C122.741 280.836 110.874 288.472 110.874 288.472L61.5713 324.89C61.5713 324.89 41.5593 340.281 19.0649 331.045C2.11744 324.081 -0.640713 311.542 1.21339 300.245C3.06749 288.974 15.0502 282.351 22.4666 282.811C31.6222 283.373 38.9927 286.88 43.3904 298.883C47.045 308.835 49.8797 312.223 54.4844 312.572C59.1043 312.921 63.4024 306.068 63.4024 293.409C63.4024 280.751 63.4024 92.2418 63.4024 92.2418C63.4024 87.8151 60.1769 84.2142 56.1852 84.2142L45.7655 84.1716Z" fill="#4DB9B2"/>
<path d="M400.528 42.3994V192.277C400.528 192.277 400.505 200.406 394.522 204.825C394.522 204.825 350.245 236.535 347.61 238.527C345.419 240.204 340.339 242.511 335.857 238.876C332.647 236.288 332.287 230.227 332.287 230.227V42.3994H400.528Z" fill="#4DB9B2"/>
</svg>
