<svg width="40" height="40" viewBox="0 0 40 40" fill="none" xmlns="http://www.w3.org/2000/svg">
<mask id="path-1-inside-1_397_64677" fill="white">
<path d="M0 12C0 5.37258 5.37258 0 12 0H28C34.6274 0 40 5.37258 40 12V28C40 34.6274 34.6274 40 28 40H12C5.37258 40 0 34.6274 0 28V12Z"/>
</mask>
<path d="M0 12C0 5.37258 5.37258 0 12 0H28C34.6274 0 40 5.37258 40 12V28C40 34.6274 34.6274 40 28 40H12C5.37258 40 0 34.6274 0 28V12Z" fill="white"/>
<path d="M12 0V1H28V0V-1H12V0ZM40 12H39V28H40H41V12H40ZM28 40V39H12V40V41H28V40ZM0 28H1V12H0H-1V28H0ZM12 40V39C5.92487 39 1 34.0751 1 28H0H-1C-1 35.1797 4.8203 41 12 41V40ZM40 28H39C39 34.0751 34.0751 39 28 39V40V41C35.1797 41 41 35.1797 41 28H40ZM28 0V1C34.0751 1 39 5.92487 39 12H40H41C41 4.8203 35.1797 -1 28 -1V0ZM12 0V-1C4.8203 -1 -1 4.8203 -1 12H0H1C1 5.92487 5.92487 1 12 1V0Z" fill="#D0D5E3" mask="url(#path-1-inside-1_397_64677)"/>
<path d="M20.252 10.7666C20.4801 10.7163 20.7784 10.7591 21.3555 11.1875C21.7961 11.5146 22.3082 11.9971 22.9717 12.6533L23.6885 13.3672L26.6533 16.335C27.6768 17.3595 28.3828 18.0694 28.8154 18.6533C29.1866 19.1543 29.266 19.4449 29.2471 19.6631L29.2334 19.7529C29.1839 19.9818 29.0218 20.2351 28.3984 20.5811C27.9222 20.8454 27.2766 21.1097 26.4121 21.4404L25.4727 21.7959L23.6279 22.4893C23.0499 22.7064 22.5862 22.8712 22.2109 23.1416L22.0557 23.2646C21.9318 23.3719 21.8176 23.4894 21.7148 23.6162L21.6162 23.7461C21.3844 24.0692 21.2512 24.4459 21.1201 24.9014L20.9863 25.3838C20.7514 26.2377 20.5915 26.8154 20.4277 27.2236C20.3043 27.5312 20.209 27.6592 20.1484 27.7158L20.0996 27.7529C19.9823 27.8198 19.8496 27.8546 19.7148 27.8545L19.6533 27.8467C19.5728 27.8273 19.4274 27.7624 19.1689 27.5566C18.9971 27.4198 18.8053 27.2455 18.5781 27.0273L17.7754 26.2334L16.3086 24.7656L15.7783 24.2354L15.248 24.7656L10.7715 29.2461C10.7692 29.2483 10.768 29.2488 10.7676 29.249C10.7666 29.2494 10.7648 29.25 10.7627 29.25C10.7605 29.25 10.7587 29.2494 10.7578 29.249L10.7539 29.2461C10.7518 29.2439 10.7512 29.2428 10.751 29.2422C10.7505 29.241 10.75 29.239 10.75 29.2363C10.75 29.2337 10.7505 29.2316 10.751 29.2305L10.7539 29.2266L15.2295 24.7461L15.7598 24.2168L15.2305 23.6865L13.8154 22.2695C13.1935 21.647 12.7732 21.2248 12.501 20.8828C12.296 20.6252 12.2314 20.4807 12.2119 20.4004L12.2041 20.3398C12.2035 20.2363 12.2236 20.1341 12.2627 20.0391L12.3076 19.9463C12.336 19.8969 12.4271 19.7844 12.834 19.6211C13.0366 19.5398 13.2812 19.4594 13.5811 19.3701L14.6611 19.0654C15.2579 18.9009 15.7359 18.778 16.1348 18.542L16.3008 18.4336C16.4372 18.3354 16.5643 18.2245 16.6807 18.1035L16.793 17.9795C17.0513 17.6764 17.2152 17.3113 17.3838 16.8672L17.5576 16.3965L18.2256 14.5732C18.7276 13.2031 19.0769 12.2562 19.4268 11.6133C19.7276 11.0605 19.959 10.8658 20.165 10.792L20.252 10.7666Z" stroke="#757D95" stroke-width="1.5"/>
</svg>
