<svg width="24" height="24" viewBox="0 0 24 24" fill="none" xmlns="http://www.w3.org/2000/svg">
<path d="M15.7502 3.00136H17.2502C17.847 3.00136 18.4193 3.23841 18.8412 3.66037C19.2632 4.08232 19.5002 4.65462 19.5002 5.25136V20.2514C19.5002 20.8481 19.2632 21.4204 18.8412 21.8424C18.4193 22.2643 17.847 22.5014 17.2502 22.5014H6.75021C6.15348 22.5014 5.58118 22.2643 5.15922 21.8424C4.73727 21.4204 4.50021 20.8481 4.50021 20.2514V5.25136C4.50021 4.65462 4.73727 4.08232 5.15922 3.66037C5.58118 3.23841 6.15348 3.00136 6.75021 3.00136H8.25021" stroke="#97A1C0" stroke-width="1.5" stroke-linejoin="round"/>
<path d="M14.5252 1.50046H9.47492C8.79845 1.50046 8.25007 2.04884 8.25007 2.7253V3.27561C8.25007 3.95208 8.79845 4.50046 9.47492 4.50046H14.5252C15.2017 4.50046 15.7501 3.95208 15.7501 3.27561V2.7253C15.7501 2.04884 15.2017 1.50046 14.5252 1.50046Z" stroke="#97A1C0" stroke-width="1.5" stroke-linejoin="round"/>
</svg>
