<svg width="17" height="16" viewBox="0 0 17 16" fill="none" xmlns="http://www.w3.org/2000/svg">
<path d="M7.40906 1.9974C6.43814 1.9974 5.48903 2.28531 4.68174 2.82472C3.87444 3.36414 3.24524 4.13083 2.87368 5.02784C2.50213 5.92486 2.40491 6.91191 2.59433 7.86417C2.78375 8.81644 3.25129 9.69115 3.93783 10.3777C4.62438 11.0642 5.49909 11.5318 6.45135 11.7212C7.40362 11.9106 8.39067 11.8134 9.28768 11.4418C10.1847 11.0703 10.9514 10.4411 11.4908 9.63379C12.0302 8.8265 12.3181 7.87738 12.3181 6.90646C12.318 5.60452 11.8008 4.35593 10.8802 3.43532C9.95959 2.51471 8.711 1.99748 7.40906 1.9974V1.9974Z" stroke="#97A1C0" stroke-miterlimit="10"/>
<path d="M11.0716 10.5703L14.5 13.9987" stroke="#97A1C0" stroke-miterlimit="10" stroke-linecap="round"/>
</svg>
