<?xml version="1.0" encoding="UTF-8"?>
<svg id="Layer_2" data-name="Layer 2" xmlns="http://www.w3.org/2000/svg" viewBox="0 0 378.2 268.45">
  <defs>
    <style>
      .cls-1 {
        stroke-width: 0px;
      }
    </style>
  </defs>
  <g id="Layer_1-2" data-name="Layer 1">
    <path class="cls-1" d="m42.15,52.56c-5.55,0-10.05-4.5-10.05-10.05v-.05c0-5.38,4.28-9.83,9.62-10h95.64c4.73,0,7.45-2.8,8.45-6.26.63-2.25,4.42-7.17,12.03-7.17h147.39c4.76,0,5.86-1.94,5.86-9.68,0-5.33,4.89-9.35,10.26-9.35h45.94c6.03,0,10.91,4.89,10.91,10.91v138.56c0,6.1-2.84,10.59-8.54,14.35,0,0-39.18,26.01-44.05,29.41-2.14,1.32-7.04,2.57-11.3-.63-2.94-2.28-3.28-7.17-3.28-8.81,0-1.17,0-94.25,0-144.59h-44.17c-4.86,0-9.07,3.57-9.07,8.52v133.33c0,6.1-2.84,10.59-8.54,14.35,0,0-39.19,26.01-44.07,29.41-2.15,1.44-6.96,3.04-11.2.02-3.13-2.27-3.36-7.55-3.36-7.55V49.99c0-8.33-4.87-10.79-10.79-10.79h-19.22c-6.18,0-8.24,3.27-9.33,6.87-.67,2.26-3.59,6.49-11.64,6.49h-5.92c-3.8,0-6.94,3.01-6.94,7.04v135.75s.21,11.14-5.94,20.04c-3.72,5.63-16.26,13.83-16.26,13.83l-46.68,31.41s-19.06,13.23-40.56,5.29C1.27,259.87-1.23,249.07.45,239.4c1.7-9.62,13.11-15.28,20.29-14.94,8.64.38,15.65,3.4,19.85,13.81,3.4,8.52,6.12,11.36,10.56,11.74,4.43.17,8.47-5.71,8.47-16.45V59.6c0-3.82-3.21-7.04-6.98-7.04h-10.5Z"/>
  </g>
</svg>